<?xml version="1.0" standalone="no"?>
<!DOCTYPE svg PUBLIC "-//W3C//DTD SVG 20010904//EN"
 "http://www.w3.org/TR/2001/REC-SVG-20010904/DTD/svg10.dtd">
<svg version="1.0" xmlns="http://www.w3.org/2000/svg"
 width="260.000000pt" height="260.000000pt" viewBox="0 0 260.000000 260.000000"
 preserveAspectRatio="xMidYMid meet">
<metadata>
Created by potrace 1.11, written by Peter Selinger 2001-2013
</metadata>
<g transform="translate(0.000000,260.000000) scale(0.100000,-0.100000)"
fill="#000000" stroke="none">
<path d="M1092 2585 c-40 -7 -94 -20 -120 -28 -26 -9 -74 -23 -107 -32 -72
-20 -222 -98 -324 -168 -90 -63 -209 -178 -279 -272 -61 -82 -125 -202 -118
-222 3 -7 -1 -13 -10 -13 -16 0 -40 -49 -51 -101 -5 -24 -3 -28 11 -23 28 11
18 -16 -13 -34 -24 -13 -33 -29 -45 -77 -29 -120 -38 -215 -32 -368 5 -160 17
-224 67 -371 45 -132 136 -304 154 -289 4 4 5 3 2 -3 -11 -19 69 -122 177
-227 65 -65 194 -159 206 -152 4 3 10 -2 13 -10 3 -7 20 -21 37 -30 26 -14 34
-14 48 -3 13 11 15 11 9 -4 -8 -22 9 -33 27 -19 11 9 14 8 12 -5 -1 -12 15
-23 49 -37 28 -10 59 -23 70 -28 36 -15 105 -30 114 -24 5 3 11 1 13 -4 6 -17
177 -41 292 -41 511 0 966 287 1182 744 53 113 98 263 114 382 13 95 10 339
-4 362 -4 7 -9 34 -11 60 -5 91 -119 382 -150 382 -8 0 -12 6 -9 14 7 18 -2
35 -63 116 -103 139 -191 226 -323 316 -153 105 -358 184 -550 214 -89 14
-300 11 -388 -5z m423 -65 c-3 -5 -11 -10 -16 -10 -6 0 -7 5 -4 10 3 6 11 10
16 10 6 0 7 -4 4 -10z m-183 -22 c-7 -7 -12 -8 -12 -2 0 6 3 14 7 17 3 4 9 5
12 2 2 -3 -1 -11 -7 -17z m118 -14 c8 -7 19 -13 25 -13 19 1 16 -19 -6 -40
-17 -16 -33 -19 -82 -18 -40 1 -62 6 -65 15 -3 11 -1 11 17 1 16 -10 23 -11
32 -2 7 7 24 9 39 6 15 -3 31 0 34 6 7 10 3 13 -26 15 -20 2 -27 18 -17 38 10
18 20 17 49 -8z m-180 6 c0 -5 -2 -10 -4 -10 -2 0 -12 -3 -22 -7 -16 -6 -17
-5 -4 10 17 19 30 22 30 7z m94 -16 c9 -3 16 -12 16 -20 0 -19 -7 -18 -32 6
-22 20 -15 26 16 14z m476 -14 c0 -5 -4 -10 -10 -10 -5 0 -10 5 -10 10 0 6 5
10 10 10 6 0 10 -4 10 -10z m-629 -33 c-13 -13 -26 -3 -16 12 3 6 11 8 17 5 6
-4 6 -10 -1 -17z m-511 -27 c0 -5 -5 -10 -11 -10 -5 0 -7 5 -4 10 3 6 8 10 11
10 2 0 4 -4 4 -10z m1090 -15 c-7 -8 -21 -15 -31 -15 -10 0 -20 -4 -23 -8 -2
-4 -22 -9 -43 -10 -31 -2 -35 0 -20 9 10 6 31 12 48 14 16 2 37 9 47 14 25 15
36 13 22 -4z m-1113 -20 c12 -27 0 -35 -15 -9 -7 13 -13 14 -28 5 -18 -10 -18
-11 4 -17 18 -5 21 -11 16 -28 -7 -21 -6 -21 14 -2 20 17 53 17 51 -1 0 -4
-17 -21 -37 -38 -20 -16 -32 -23 -28 -15 4 8 0 6 -9 -5 -9 -11 -18 -30 -22
-43 -5 -19 -10 -22 -34 -17 -21 5 -32 1 -45 -14 -21 -24 -26 -61 -8 -61 6 0
15 -7 18 -16 4 -11 14 -15 30 -12 21 4 23 3 13 -13 -9 -14 -13 -15 -24 -3 -8
8 -20 14 -28 14 -7 0 -15 7 -19 15 -3 8 -12 12 -21 9 -8 -3 -15 -1 -15 6 0 6
6 8 13 4 7 -4 9 -3 4 2 -5 5 -14 9 -20 9 -7 0 -13 8 -15 18 -2 12 3 17 19 17
12 0 30 7 40 16 17 15 17 18 2 40 -9 14 -13 27 -9 31 3 3 1 12 -6 20 -8 10 -8
12 4 8 11 -4 18 2 22 21 10 37 62 84 95 84 18 0 30 -8 38 -25z m643 -24 c0 -6
-5 -13 -11 -17 -6 -3 -9 -19 -5 -35 7 -34 -7 -38 -21 -6 -13 27 0 67 22 67 8
0 15 -4 15 -9z m300 -5 c0 -3 -4 -8 -10 -11 -5 -3 -10 -1 -10 4 0 6 5 11 10
11 6 0 10 -2 10 -4z m-164 -64 c-9 -29 -42 -63 -57 -60 -7 2 -15 -6 -17 -17
-2 -11 -13 -26 -23 -33 -11 -7 -19 -20 -19 -28 0 -8 -4 -12 -10 -9 -5 3 -19 1
-31 -5 -19 -11 -20 -9 -17 17 2 17 9 28 18 28 8 0 34 14 57 32 23 18 46 33 51
33 5 0 17 16 27 36 17 37 32 41 21 6z m-333 -21 c-19 -33 -29 -37 -53 -21 -12
8 -11 10 7 10 12 0 30 11 40 24 24 33 28 26 6 -13z m-318 -11 c3 -5 1 -10 -4
-10 -6 0 -11 5 -11 10 0 6 2 10 4 10 3 0 8 -4 11 -10z m681 -18 c-18 -16 -18
-16 -6 6 6 13 14 21 18 18 3 -4 -2 -14 -12 -24z m-1010 -39 c-7 -7 -26 7 -26
19 0 6 6 6 15 -2 9 -7 13 -15 11 -17z m1834 -127 c0 -6 -6 -2 -13 8 -10 14
-28 19 -70 20 -31 0 -57 4 -57 9 0 4 3 7 8 7 4 0 15 14 25 32 l18 31 44 -49
c24 -27 44 -53 45 -58z m-1708 62 c-7 -7 -12 -8 -12 -2 0 14 12 26 19 19 2 -3
-1 -11 -7 -17z m588 -3 c-28 -30 -36 -31 -42 -7 -4 15 -1 18 17 14 13 -2 26 1
29 7 4 6 10 11 13 11 4 0 -4 -11 -17 -25z m420 5 c0 -5 -2 -10 -4 -10 -3 0 -8
5 -11 10 -3 6 -1 10 4 10 6 0 11 -4 11 -10z m-470 -50 c0 -5 -2 -10 -4 -10 -3
0 -8 5 -11 10 -3 6 -1 10 4 10 6 0 11 -4 11 -10z m370 -20 c0 -11 4 -20 10
-20 5 0 7 6 4 13 -3 9 3 13 18 12 28 -2 40 -45 13 -45 -9 0 -14 -4 -10 -9 3
-5 1 -13 -5 -16 -18 -11 -60 38 -53 63 7 28 23 29 23 2z m-993 -1 c38 -14 81
-56 104 -101 23 -44 25 -133 6 -181 -19 -45 -88 -104 -137 -117 -136 -37 -270
112 -230 255 15 52 71 122 114 141 38 16 105 18 143 3z m751 -84 c2 -49 7 -94
13 -100 7 -7 9 -5 7 4 -4 19 64 45 97 37 54 -14 65 -38 65 -137 0 -82 2 -91
20 -96 43 -11 17 -23 -50 -23 -67 0 -93 12 -50 23 18 5 20 14 20 99 0 60 -4
98 -12 106 -20 20 -48 14 -79 -17 -27 -27 -29 -35 -29 -106 0 -68 2 -77 20
-82 39 -10 8 -23 -56 -23 -62 0 -85 12 -44 23 19 5 20 14 20 186 0 174 -1 181
-20 181 -11 0 -20 5 -20 11 0 6 19 9 48 7 l47 -3 3 -90z m994 -97 c3 -192 3
-193 26 -196 12 -2 20 -8 17 -13 -8 -12 -92 -12 -100 1 -4 6 -15 4 -30 -6 -49
-32 -135 15 -155 84 -16 60 -11 61 13 3 32 -79 43 -74 39 18 -3 46 1 87 7 100
7 12 8 21 2 21 -14 0 -51 -50 -51 -68 0 -8 -3 -12 -7 -8 -14 13 30 75 64 91
30 14 42 15 78 5 l44 -12 -1 -104 c0 -56 3 -108 7 -113 3 -6 15 -11 27 -11 14
0 18 5 14 16 -3 9 -6 96 -6 195 l0 179 -23 0 c-19 0 -23 -5 -22 -27 2 -19 1
-21 -2 -5 -3 14 -12 22 -24 22 -10 0 -19 5 -19 10 0 6 22 10 50 10 l50 0 2
-192z m79 165 c1 -10 1 -24 0 -32 -2 -7 2 -10 7 -7 9 5 22 -14 22 -33 0 -4
-11 -21 -25 -37 -14 -16 -25 -32 -25 -36 0 -5 -4 -8 -10 -8 -16 0 -11 48 6 58
14 8 14 10 0 21 -19 16 -21 77 -3 84 22 9 27 7 28 -10z m-357 -19 c11 -28 6
-39 -9 -20 -8 11 -15 23 -15 28 0 14 18 9 24 -8z m-828 -20 c-5 -14 -4 -15 9
-4 24 20 18 -6 -9 -34 -21 -23 -56 -36 -56 -20 0 7 51 74 57 74 3 0 2 -7 -1
-16z m1021 -30 c2 -28 -1 -35 -13 -30 -9 3 -20 6 -25 6 -5 0 -9 5 -9 11 0 5 5
7 12 3 8 -5 9 -2 5 9 -4 10 0 20 11 26 9 6 17 11 17 11 0 0 1 -16 2 -36z
m-677 11 c0 -8 -4 -15 -10 -15 -5 0 -7 7 -4 15 4 8 8 15 10 15 2 0 4 -7 4 -15z
m350 -39 c0 -3 -9 3 -20 14 -11 11 -20 25 -20 31 0 7 9 0 20 -14 11 -14 20
-28 20 -31z m357 -18 c-2 -13 -4 -3 -4 22 0 25 2 35 4 23 2 -13 2 -33 0 -45z
m-387 11 c0 -6 -4 -7 -10 -4 -5 3 -10 11 -10 16 0 6 5 7 10 4 6 -3 10 -11 10
-16z m-935 -29 c22 -8 26 -15 23 -42 -2 -28 -8 -34 -30 -36 -25 -3 -28 0 -28
27 0 41 -24 41 -45 1 -11 -22 -15 -52 -13 -103 3 -66 5 -72 26 -75 12 -2 20
-8 17 -13 -8 -12 -132 -12 -140 1 -3 6 3 10 14 10 20 0 21 6 21 105 0 98 -1
105 -20 105 -11 0 -20 5 -20 10 0 14 97 13 102 -2 3 -8 11 -7 28 5 29 20 31
20 65 7z m220 -4 c57 -24 60 -92 4 -84 -20 2 -24 8 -21 35 3 34 -12 43 -63 40
-23 -1 -24 -3 -31 -104 -5 -68 -4 -74 20 -98 33 -33 61 -32 98 5 35 35 49 33
24 -4 -23 -36 -80 -51 -130 -34 -49 16 -77 53 -83 109 -6 54 24 105 77 131 42
22 60 22 105 4z m563 3 c40 -14 45 -27 52 -139 4 -83 7 -95 23 -92 27 5 20
-17 -8 -24 -16 -4 -34 0 -49 10 -22 14 -28 14 -53 1 -15 -8 -36 -15 -45 -15
-31 0 -68 23 -74 47 -9 36 19 68 77 89 62 23 77 42 63 81 -7 20 -16 28 -34 28
-21 0 -26 -5 -28 -32 -5 -48 -62 -57 -62 -8 0 50 70 78 138 54z m310 -5 c34
-23 27 -68 -10 -72 -25 -3 -28 0 -28 27 0 41 -24 41 -45 1 -11 -22 -15 -52
-13 -103 3 -66 5 -72 26 -75 48 -7 8 -22 -59 -22 -66 0 -91 12 -49 23 18 5 20
14 20 106 0 94 -1 101 -20 101 -11 0 -20 5 -20 10 0 14 83 13 97 -1 8 -8 17
-7 34 5 29 20 39 20 67 0z m-936 -114 c-2 -17 -9 -33 -15 -37 -7 -4 -8 0 -4
11 4 10 7 26 7 37 0 10 4 19 8 19 5 0 7 -14 4 -30z m1391 -116 c-8 -21 -30
-24 -46 -6 -14 16 -13 17 18 18 22 0 31 -4 28 -12z m-1468 -44 c3 -5 1 -10 -4
-10 -6 0 -11 5 -11 10 0 6 2 10 4 10 3 0 8 -4 11 -10z m-567 -16 c14 -15 14
-16 -3 -13 -10 2 -20 10 -23 17 -5 17 6 15 26 -4z m642 -32 c0 -15 -2 -15 -10
-2 -13 20 -13 33 0 25 6 -3 10 -14 10 -23z m-102 -11 c-7 -12 -16 -21 -21 -21
-8 0 0 17 18 36 16 18 18 8 3 -15z m-103 5 c63 -27 76 -99 24 -146 l-30 -29
29 -15 c42 -21 58 -66 43 -117 -19 -61 -46 -73 -184 -79 -115 -5 -158 1 -97
14 l30 6 -2 177 -3 178 -27 3 c-16 2 -28 8 -28 13 0 15 206 11 245 -5z m1015
-76 c0 -49 2 -90 3 -90 2 0 19 7 36 16 41 21 99 13 124 -17 13 -17 17 -40 17
-109 0 -82 1 -88 22 -93 40 -11 9 -21 -55 -18 -67 3 -84 9 -49 18 21 5 22 11
22 97 0 58 -4 96 -12 104 -9 9 -9 12 2 12 7 0 11 2 9 5 -12 11 -80 -18 -99
-42 -16 -20 -20 -40 -20 -98 0 -66 2 -73 23 -80 19 -7 17 -9 -15 -12 -21 -2
-55 -2 -75 0 -33 3 -35 5 -15 12 22 7 22 10 22 186 0 172 -1 179 -20 179 -11
0 -20 5 -20 10 0 6 23 10 50 10 l50 0 0 -90z m-330 8 c0 -13 -43 15 -48 31 -3
9 5 7 22 -4 14 -10 26 -22 26 -27z m240 21 c0 -4 -8 -6 -17 -3 -15 5 -15 3 2
-11 13 -10 16 -18 9 -23 -6 -4 -14 -17 -18 -29 -8 -26 -19 -29 -34 -10 -13 15
1 42 17 33 7 -5 11 1 11 16 0 18 -2 20 -10 8 -5 -8 -10 -12 -10 -7 0 4 5 16
12 26 11 18 38 18 38 0z m-1290 -24 c-6 -15 -13 -25 -16 -23 -2 3 1 17 7 32
16 34 23 27 9 -9z m897 10 c-2 -5 -19 -10 -38 -10 -19 0 -40 -4 -48 -9 -9 -6
-12 -5 -9 5 2 7 15 16 27 19 36 8 71 6 68 -5z m260 -7 c-3 -8 -6 -5 -6 6 -1
11 2 17 5 13 3 -3 4 -12 1 -19z m397 10 c-13 -23 -37 -48 -46 -48 -5 0 1 14
14 30 21 29 46 43 32 18z m-788 -34 c-5 -12 -1 -14 15 -9 16 5 19 4 14 -6 -6
-9 -3 -10 11 -5 38 16 58 17 25 2 -18 -9 -37 -14 -41 -11 -12 8 -41 -25 -34
-37 4 -7 2 -8 -4 -4 -14 9 -1 86 14 86 3 0 3 -7 0 -16z m134 -4 c0 -5 -5 -10
-11 -10 -5 0 -7 5 -4 10 3 6 8 10 11 10 2 0 4 -4 4 -10z m44 -6 c4 -10 1 -14
-6 -12 -15 5 -23 28 -10 28 5 0 13 -7 16 -16z m680 -6 c16 -1 31 -9 34 -16 3
-11 0 -12 -16 -3 -10 6 -22 8 -25 5 -8 -8 -47 15 -47 28 0 7 4 7 13 0 6 -6 25
-12 41 -14z m-324 -23 c0 -17 -17 -28 -30 -20 -6 4 -5 13 2 25 13 20 28 18 28
-5z m-1230 -5 c0 -5 -5 -10 -11 -10 -5 0 -7 5 -4 10 3 6 8 10 11 10 2 0 4 -4
4 -10z m601 -16 c32 -16 67 -80 52 -95 -4 -4 -44 -9 -88 -11 l-80 -3 2 -39 c1
-21 10 -47 18 -56 13 -14 13 -19 3 -23 -13 -6 36 0 80 9 12 2 28 16 34 29 13
28 28 33 28 10 0 -9 -12 -27 -26 -40 -53 -49 -162 -25 -190 40 -19 46 -18 83
4 123 34 65 102 88 163 56z m262 -4 c25 -20 26 -27 29 -118 3 -93 4 -96 28
-103 22 -5 23 -7 7 -14 -33 -14 -46 21 -47 122 0 83 -2 93 -22 107 -33 23 -41
19 -21 -10 13 -21 14 -32 6 -54 -7 -18 -7 -33 -1 -45 6 -9 7 -30 4 -47 -7 -35
8 -68 32 -69 11 0 12 -2 4 -6 -7 -3 -19 0 -27 7 -10 8 -19 8 -34 1 -29 -16
-52 -13 -67 7 -17 21 -18 64 -2 80 17 17 -4 15 -30 -4 -31 -21 -26 -64 8 -81
14 -7 19 -13 12 -13 -30 0 -52 21 -52 50 0 41 34 74 67 65 16 -4 22 -2 18 5
-3 5 1 10 9 10 22 0 56 36 56 58 0 27 -21 49 -55 55 -16 4 -24 4 -17 1 6 -3 9
-11 5 -17 -5 -7 -8 -21 -8 -32 0 -14 -8 -21 -28 -23 -32 -4 -44 16 -27 48 23
43 110 54 153 20z m295 0 c35 -21 41 -50 16 -71 -23 -19 -48 1 -49 37 0 27 -3
29 -40 29 -45 1 -43 6 -51 -98 -4 -52 -2 -73 10 -92 12 -18 12 -25 3 -28 -6
-3 11 -3 38 -1 41 3 55 10 78 36 20 24 27 28 27 15 0 -10 -11 -29 -25 -42 -19
-20 -34 -25 -74 -25 -96 0 -154 87 -117 174 17 42 55 78 74 71 6 -2 12 0 12 5
0 17 64 11 98 -10z m-63 -50 c-3 -5 -11 -10 -16 -10 -6 0 -7 5 -4 10 3 6 11
10 16 10 6 0 7 -4 4 -10z m-1095 -70 c-6 -11 -13 -20 -16 -20 -2 0 0 9 6 20 6
11 13 20 16 20 2 0 0 -9 -6 -20z m1140 -10 c0 -5 -2 -10 -4 -10 -3 0 -8 5 -11
10 -3 6 -1 10 4 10 6 0 11 -4 11 -10z m80 0 c0 -5 -5 -10 -11 -10 -5 0 -7 5
-4 10 3 6 8 10 11 10 2 0 4 -4 4 -10z m-100 -48 c0 -13 -12 -22 -22 -16 -10 6
-1 24 13 24 5 0 9 -4 9 -8z m510 -23 c0 -5 -4 -9 -10 -9 -5 0 -10 7 -10 16 0
8 5 12 10 9 6 -3 10 -10 10 -16z m395 -28 c3 -5 2 -12 -3 -15 -5 -3 -9 1 -9 9
0 17 3 19 12 6z m-1195 -50 c0 -15 -28 -33 -40 -26 -7 5 -5 12 7 21 21 16 33
18 33 5z m-468 -46 c-19 -30 3 -70 32 -59 9 3 16 1 16 -5 0 -16 -26 -14 -61 4
-16 9 -27 21 -23 27 4 5 0 14 -7 19 -11 7 -10 9 5 9 11 0 16 3 13 7 -4 3 -2
12 5 20 9 11 13 11 19 1 4 -6 5 -17 1 -23z m34 -10 c0 -14 -4 -25 -8 -25 -10
0 -10 13 -2 34 9 23 12 20 10 -9z m64 8 c0 -3 -6 -3 -14 0 -7 3 -19 0 -25 -6
-8 -8 -11 -8 -11 0 0 6 6 13 13 16 13 4 37 -2 37 -10z m310 4 c0 -2 -12 -14
-27 -28 l-28 -24 24 28 c23 25 31 32 31 24z m998 -33 c-10 -10 -28 6 -28 24 0
15 1 15 17 -1 9 -9 14 -19 11 -23z m-1088 10 c0 -8 -5 -12 -10 -9 -6 4 -8 11
-5 16 9 14 15 11 15 -7z m-660 -6 c36 -12 40 -16 40 -46 0 -20 -4 -31 -10 -27
-5 3 -10 11 -10 17 0 23 -34 48 -65 48 -53 0 -70 -29 -70 -120 0 -90 17 -120
68 -120 33 0 77 34 77 59 0 11 3 12 11 4 6 -6 9 -23 7 -39 -3 -26 -8 -30 -43
-34 -97 -13 -165 33 -172 117 -5 60 20 111 68 135 41 21 48 22 99 6z m410 -14
c0 -8 -5 -12 -10 -9 -6 4 -8 11 -5 16 9 14 15 11 15 -7z m63 10 c7 -8 -17 -34
-31 -34 -6 0 -12 -6 -15 -12 -2 -7 -8 -10 -12 -6 -9 8 18 38 35 38 6 0 8 5 5
10 -7 11 8 14 18 4z m801 -10 c9 -8 16 -25 16 -36 0 -19 -1 -19 -20 5 -30 38
-27 62 4 31z m83 0 c8 -21 -13 -42 -28 -27 -13 13 -5 43 11 43 6 0 13 -7 17
-16z m223 6 c0 -5 -2 -10 -4 -10 -3 0 -8 5 -11 10 -3 6 -1 10 4 10 6 0 11 -4
11 -10z m-540 -30 c0 -5 -2 -10 -4 -10 -3 0 -8 5 -11 10 -3 6 -1 10 4 10 6 0
11 -4 11 -10z m420 -35 c0 -24 2 -25 65 -25 53 0 63 -3 59 -15 -7 -17 14 -75
26 -75 5 0 14 16 20 36 10 30 10 38 -1 45 -10 6 -4 9 18 9 l32 0 -19 -32 c-10
-18 -33 -69 -50 -113 -36 -91 -55 -117 -84 -113 -26 4 -36 48 -11 48 8 0 18
-7 21 -15 10 -24 20 -18 36 23 14 37 14 42 -11 105 -31 79 -41 90 -72 85 -22
-3 -24 -9 -27 -62 -4 -67 11 -93 34 -62 12 17 14 17 14 3 0 -34 -61 -44 -82
-13 -4 6 -8 37 -8 68 0 44 -4 59 -17 67 -17 10 -17 10 0 11 10 0 17 8 17 18 0
22 8 32 27 32 7 0 13 -11 13 -25z m-1241 -50 c72 -70 -28 -177 -113 -121 -53
34 -45 109 14 138 40 20 65 16 99 -17z m211 24 c14 0 36 1 49 2 35 1 51 -26
51 -86 0 -28 5 -56 12 -63 9 -9 1 -12 -37 -12 -39 1 -46 3 -32 11 13 8 17 23
17 70 0 63 -15 84 -45 59 -18 -15 -21 -110 -3 -128 9 -9 1 -12 -37 -12 -45 1
-48 2 -32 14 15 12 18 26 15 79 -2 56 -5 63 -21 59 -45 -12 -66 -110 -29 -138
15 -12 11 -13 -32 -14 -39 0 -47 3 -38 12 16 16 16 134 0 142 -7 3 6 4 28 2
23 -2 48 0 55 5 8 5 23 6 34 3 11 -3 31 -6 45 -5z m260 2 c0 -4 17 -6 38 -4
95 12 104 6 110 -74 2 -32 9 -64 14 -70 8 -10 -1 -13 -38 -13 -43 1 -47 2 -31
14 29 22 22 136 -9 136 -40 0 -62 -118 -26 -139 13 -8 6 -10 -32 -11 -39 0
-47 3 -38 12 7 7 12 39 12 75 0 67 -9 76 -42 46 -21 -19 -25 -102 -6 -121 9
-9 2 -12 -32 -12 -34 0 -41 3 -32 12 16 16 15 120 0 137 -11 11 -6 13 28 8 23
-2 48 -1 55 4 18 11 29 11 29 0z m558 -13 c7 -6 12 -34 12 -67 0 -31 5 -62 12
-69 9 -9 1 -12 -37 -12 -42 0 -46 2 -31 13 14 10 17 25 14 72 -3 68 -21 82
-57 46 -27 -27 -29 -105 -3 -120 13 -8 6 -10 -32 -11 -39 0 -47 3 -38 12 16
16 16 134 0 142 -7 3 5 4 27 2 22 -2 49 0 60 5 22 8 53 2 73 -13z m-1197 -31
c-8 -8 -11 -5 -11 9 0 27 14 41 18 19 2 -9 -1 -22 -7 -28z m879 -21 c0 -76 17
-101 50 -71 23 21 28 103 8 123 -9 9 -5 12 20 12 l32 0 0 -68 c0 -40 5 -73 12
-80 10 -10 0 -12 -42 -12 -30 0 -64 0 -75 0 -30 -1 -45 28 -45 91 0 37 -5 59
-12 62 -7 3 2 6 20 6 l32 1 0 -64z m430 -6 c0 -55 3 -71 18 -79 13 -8 6 -10
-32 -11 -39 0 -47 3 -38 12 16 16 16 135 0 141 -7 3 2 6 20 6 l32 1 0 -70z
m426 -85 c-2 -35 -26 -76 -26 -43 0 15 20 78 24 78 2 0 2 -16 2 -35z m104 15
c0 -5 -5 -10 -11 -10 -5 0 -7 5 -4 10 3 6 8 10 11 10 2 0 4 -4 4 -10z m-195
-40 c3 -5 2 -10 -4 -10 -5 0 -13 5 -16 10 -3 6 -2 10 4 10 5 0 13 -4 16 -10z
m49 -95 c-4 -8 -8 -15 -10 -15 -2 0 -4 7 -4 15 0 8 4 15 10 15 5 0 7 -7 4 -15z
m-69 -45 c1 -16 -2 -27 -7 -24 -5 3 -6 14 -3 25 4 11 2 19 -5 19 -6 0 -8 5 -5
11 10 15 18 3 20 -31z m-1800 10 c3 -5 1 -10 -4 -10 -6 0 -11 5 -11 10 0 6 2
10 4 10 3 0 8 -4 11 -10z m560 -14 c14 -2 21 -12 23 -34 2 -18 -1 -32 -7 -32
-6 0 -11 5 -11 12 0 23 -34 48 -65 48 -54 0 -70 -29 -70 -122 0 -72 2 -82 24
-99 13 -10 32 -19 44 -19 49 0 80 74 35 83 -13 2 4 5 37 5 33 0 54 -2 47 -5
-6 -2 -15 -22 -18 -43 -6 -34 -10 -38 -43 -44 -75 -12 -100 -7 -137 27 -31 28
-37 41 -41 83 -8 89 58 163 132 149 17 -3 39 -7 50 -9z m1295 -35 c-5 -11 -15
-23 -21 -27 -6 -3 -3 5 6 20 20 30 30 35 15 7z m-1834 -11 c8 0 14 -5 14 -11
0 -12 -40 -2 -55 14 -7 7 -4 8 8 3 10 -3 25 -6 33 -6z m738 -46 c9 -3 16 -11
16 -17 0 -7 -4 -7 -12 1 -18 18 -27 14 -21 -9 3 -12 11 -18 19 -15 8 3 14 1
14 -4 0 -6 -9 -10 -20 -10 -11 0 -20 7 -20 15 0 20 -16 19 -24 -1 -10 -27 -7
-99 6 -112 9 -9 1 -12 -37 -12 -44 1 -48 2 -32 14 12 10 17 28 17 69 0 43 -4
59 -17 67 -14 8 -8 10 29 8 26 -1 51 1 54 5 9 8 9 8 28 1z m146 -9 c83 -43 56
-155 -38 -155 -96 0 -117 124 -27 161 28 11 33 11 65 -6z m443 -17 c9 -11 17
-25 17 -30 0 -6 -8 0 -17 11 -18 22 -18 21 -18 -38 0 -44 3 -57 12 -50 6 6 14
21 18 36 3 14 8 23 11 20 3 -3 -2 -21 -10 -41 -15 -37 -43 -51 -87 -44 -21 3
-24 -2 -27 -35 -2 -26 1 -39 12 -43 31 -12 16 -24 -29 -24 -25 0 -45 5 -45 10
0 6 5 10 10 10 16 0 13 227 -2 234 -7 3 6 4 29 4 23 -1 46 1 50 6 12 12 57 -3
76 -26z m-313 -42 c0 -76 17 -101 50 -71 15 14 20 31 20 71 0 32 -5 54 -12 57
-7 3 2 6 20 6 l32 1 0 -66 c0 -51 4 -70 17 -79 14 -10 2 -13 -65 -13 -96 0
-102 5 -102 92 0 34 -5 56 -12 59 -7 3 2 6 20 6 l32 1 0 -64z m515 -5 c-3 -6
-11 -8 -17 -5 -6 4 -5 9 3 15 16 10 23 4 14 -10z m-1565 -35 c0 -2 -8 -10 -17
-17 -16 -13 -17 -12 -4 4 13 16 21 21 21 13z m1570 -6 c0 -5 -4 -10 -9 -10 -6
0 -13 5 -16 10 -3 6 1 10 9 10 9 0 16 -4 16 -10z m77 -14 c-3 -8 -9 -32 -13
-53 -10 -57 -20 -70 -61 -83 -21 -7 -47 -23 -58 -36 -11 -13 -33 -26 -49 -30
-27 -7 -29 -5 -22 20 6 25 -6 36 -19 16 -14 -23 -23 -8 -9 18 12 24 12 27 -1
30 -31 7 -14 20 20 16 24 -3 35 0 35 8 0 9 3 9 9 -1 5 -8 7 -21 4 -29 -5 -12
-2 -12 17 -2 12 7 25 20 27 30 3 10 13 20 24 23 15 4 17 2 9 -12 -7 -14 -5
-17 10 -16 24 2 47 21 53 46 4 15 2 19 -8 15 -10 -3 -9 3 3 25 17 29 39 41 29
15z m-162 -6 c4 -7 12 -7 18 -2 21 15 63 0 52 -19 -11 -16 -65 -10 -87 11 -18
16 -19 20 -5 20 8 0 19 -5 22 -10z m110 -12 c-4 -13 -11 -27 -16 -32 -15 -16
-20 0 -10 28 13 32 35 36 26 4z m-1205 -12 c0 -3 -4 -8 -10 -11 -5 -3 -10 -1
-10 4 0 6 5 11 10 11 6 0 10 -2 10 -4z m1036 -30 c2 -12 1 -13 -3 -1 -2 8 -9
15 -15 15 -6 0 -7 -8 -3 -17 5 -14 3 -15 -6 -6 -13 13 -3 36 14 30 7 -2 13
-11 13 -21z m64 -1 c0 -8 -4 -15 -9 -15 -13 0 -22 16 -14 24 11 11 23 6 23 -9z
m-1140 -5 c0 -5 -4 -10 -10 -10 -5 0 -10 5 -10 10 0 6 5 10 10 10 6 0 10 -4
10 -10z m109 3 c0 -12 -51 -49 -75 -57 -13 -4 -26 -1 -33 8 -10 12 -6 18 26
35 38 20 83 28 82 14z m41 -33 c-6 -11 -14 -20 -18 -20 -4 0 -8 9 -8 20 0 13
7 20 18 20 16 0 17 -3 8 -20z m346 -36 c-3 -9 -6 -24 -6 -34 0 -22 -26 -33
-48 -20 -15 8 -14 9 6 10 12 0 22 3 21 8 -2 15 14 52 23 52 6 0 7 -7 4 -16z
m-241 -3 c3 -5 1 -12 -5 -16 -5 -3 -10 1 -10 9 0 18 6 21 15 7z m763 -17 c15
4 23 3 17 -1 -5 -5 -13 -11 -16 -15 -9 -12 -50 22 -42 35 5 8 9 6 11 -6 3 -15
10 -17 30 -13z m-28 -58 c0 -3 -4 -8 -10 -11 -5 -3 -10 -1 -10 4 0 6 5 11 10
11 6 0 10 -2 10 -4z m-180 -10 c0 -3 -4 -8 -10 -11 -5 -3 -10 -1 -10 4 0 6 5
11 10 11 6 0 10 -2 10 -4z m210 -41 c0 -8 -4 -15 -10 -15 -5 0 -7 7 -4 15 4 8
8 15 10 15 2 0 4 -7 4 -15z"/>
<path d="M605 2260 c-3 -5 -1 -10 4 -10 6 0 11 5 11 10 0 6 -2 10 -4 10 -3 0
-8 -4 -11 -10z"/>
<path d="M401 2037 c-55 -28 -66 -59 -66 -182 0 -102 2 -116 23 -144 12 -17
18 -31 13 -31 -5 0 -19 20 -31 46 -19 39 -22 58 -18 143 3 71 8 105 21 124 21
33 8 35 -21 4 -39 -41 -65 -115 -58 -165 11 -82 65 -151 126 -161 33 -5 89 -4
124 2 92 17 148 175 97 275 -20 40 -51 72 -73 76 -7 2 -26 8 -41 14 -36 15
-66 15 -96 -1z m168 -76 c14 -44 14 -163 -1 -212 -6 -21 -19 -46 -28 -54 -13
-12 -12 -4 7 32 22 43 24 58 21 138 -3 60 -10 101 -22 125 -13 25 -14 31 -3
20 8 -8 19 -30 26 -49z m-72 -43 c-3 -8 -6 -5 -6 6 -1 11 2 17 5 13 3 -3 4
-12 1 -19z m43 -68 c0 -5 -5 -10 -11 -10 -5 0 -7 5 -4 10 3 6 8 10 11 10 2 0
4 -4 4 -10z"/>
<path d="M1215 1855 l0 -195 25 0 c25 0 25 0 23 93 -1 50 -2 138 -2 195 -1 99
-2 102 -23 102 l-23 0 0 -195z"/>
<path d="M1384 1881 c15 -16 17 -36 14 -120 l-3 -101 25 0 25 0 -5 101 c-5 91
-7 103 -29 120 -30 25 -49 25 -27 0z"/>
<path d="M2090 1865 c-2 -11 -4 -60 -4 -109 l-1 -89 34 -3 c25 -3 41 2 58 18
20 19 23 31 23 93 0 62 -3 74 -23 93 -29 28 -81 26 -87 -3z m53 -116 c-6 -6
-17 -8 -24 -3 -9 5 -8 9 7 14 23 9 31 3 17 -11z"/>
<path d="M2322 1978 c5 -15 28 -23 28 -10 0 5 -7 13 -16 16 -10 4 -14 1 -12
-6z"/>
<path d="M848 1893 c6 -2 12 -18 12 -35 0 -23 4 -29 17 -26 41 8 17 69 -26 67
-11 0 -12 -2 -3 -6z"/>
<path d="M738 1775 l-3 -115 25 0 c27 0 27 3 21 208 -1 15 -7 22 -20 22 -18 0
-20 -9 -23 -115z"/>
<path d="M1096 1858 c1 -22 6 -34 17 -36 25 -5 32 26 12 48 -25 27 -30 25 -29
-12z"/>
<path d="M961 1854 c-49 -63 -34 -150 33 -186 18 -10 18 -9 2 13 -18 27 -22
131 -6 173 12 34 -3 33 -29 0z"/>
<path d="M1570 1887 c-17 -8 -25 -21 -25 -37 0 -33 29 -33 33 0 2 14 9 31 14
38 13 15 9 15 -22 -1z"/>
<path d="M1653 1882 c12 -13 15 -39 14 -111 -1 -81 2 -95 18 -107 10 -8 21
-14 24 -14 3 0 5 44 3 97 -4 104 -15 136 -52 146 -20 5 -21 4 -7 -11z"/>
<path d="M1563 1755 c-44 -19 -55 -61 -23 -87 12 -10 29 -18 38 -18 13 0 13 2
-1 18 -23 25 -21 51 5 79 25 27 24 27 -19 8z"/>
<path d="M1603 1750 c-19 -11 -33 -28 -33 -39 0 -19 24 -51 39 -51 21 0 43 31
48 68 7 49 -4 53 -54 22z"/>
<path d="M1938 1888 c7 -7 12 -23 12 -36 0 -17 5 -23 17 -20 41 8 17 68 -26
68 -12 0 -12 -3 -3 -12z"/>
<path d="M1825 1775 l0 -115 25 0 25 0 -2 97 c-1 54 -2 106 -3 116 0 11 -8 17
-22 17 -23 0 -23 -2 -23 -115z"/>
<path d="M655 1380 l0 -190 23 0 c21 0 22 3 23 98 0 53 1 139 2 189 2 93 2 93
-23 93 l-25 0 0 -190z"/>
<path d="M750 1561 l-35 -6 -3 -73 c-2 -52 1 -73 10 -76 29 -9 81 -16 75 -10
-3 4 0 16 8 28 22 30 19 88 -5 114 -12 12 -16 22 -11 22 18 0 41 -44 41 -80 0
-20 -7 -46 -16 -58 -18 -26 -8 -28 26 -5 34 23 40 33 40 69 0 56 -57 89 -130
75z"/>
<path d="M819 1364 c26 -33 29 -120 5 -150 -15 -18 -15 -18 -5 3 6 12 11 44
11 72 0 66 -24 94 -78 89 l-37 -3 0 -90 0 -90 63 1 c73 2 108 25 118 80 7 40
-8 69 -49 94 -44 27 -52 25 -28 -6z"/>
<path d="M1798 1380 c3 -178 4 -190 22 -190 16 0 19 10 22 87 2 48 2 133 0
190 -3 98 -4 103 -25 103 -22 0 -22 0 -19 -190z"/>
<path d="M1974 1394 c3 -9 6 -58 6 -110 0 -87 1 -94 20 -94 19 0 20 7 20 94 0
73 -4 98 -16 110 -20 21 -38 21 -30 0z"/>
<path d="M1088 1412 c-29 -3 -58 -35 -58 -63 0 -13 15 -17 77 -23 42 -3 78 -4
81 -2 2 2 -4 20 -13 39 -18 38 -46 54 -87 49z m51 -56 l-2 -31 -4 30 c-3 17
-10 37 -16 45 -10 13 -10 13 6 1 10 -8 16 -25 16 -45z"/>
<path d="M1004 1379 c-25 -26 -29 -38 -29 -84 0 -43 5 -59 24 -79 34 -36 43
-32 25 11 -9 21 -13 47 -9 62 3 14 6 39 5 55 0 16 7 37 16 47 29 32 0 21 -32
-12z"/>
<path d="M1267 1392 c-24 -26 -21 -42 7 -42 19 0 23 5 22 30 -1 35 -7 37 -29
12z"/>
<path d="M1329 1277 c-26 -17 -34 -30 -34 -52 0 -25 5 -31 26 -33 32 -4 50 17
54 63 4 45 -5 50 -46 22z"/>
<path d="M1668 1407 c8 -9 12 -26 10 -39 -4 -27 29 -39 38 -14 7 18 -9 42 -40
58 -19 10 -20 9 -8 -5z"/>
<path d="M1547 1382 c-44 -48 -44 -132 -1 -173 27 -26 41 -21 25 9 -14 26 -14
122 -1 156 11 30 0 34 -23 8z"/>
<path d="M431 1016 c-31 -33 -39 -102 -17 -144 21 -40 40 -53 26 -17 -16 41
-12 137 6 163 20 29 13 28 -15 -2z"/>
<path d="M575 1030 c3 -5 8 -10 11 -10 2 0 4 5 4 10 0 6 -5 10 -11 10 -5 0 -7
-4 -4 -10z"/>
<path d="M580 825 c-8 -9 -8 -15 -2 -15 12 0 26 19 19 26 -2 2 -10 -2 -17 -11z"/>
<path d="M1890 1035 c0 -8 5 -15 10 -15 6 0 10 7 10 15 0 8 -4 15 -10 15 -5 0
-10 -7 -10 -15z"/>
<path d="M1993 982 c-11 -28 -1 -165 12 -169 10 -3 11 174 1 185 -3 3 -9 -4
-13 -16z"/>
<path d="M2097 938 c5 -7 20 -39 33 -71 17 -43 25 -55 31 -44 5 9 3 26 -6 43
-7 16 -18 41 -24 57 -6 15 -18 27 -27 27 -12 0 -14 -4 -7 -12z"/>
<path d="M2070 725 c0 -8 5 -15 10 -15 6 0 10 7 10 15 0 8 -4 15 -10 15 -5 0
-10 -7 -10 -15z"/>
<path d="M680 924 c-21 -54 -2 -114 36 -114 27 0 44 26 44 70 0 45 -16 70 -46
70 -17 0 -27 -8 -34 -26z"/>
<path d="M650 921 c-14 -27 -13 -66 3 -79 9 -8 12 2 13 44 0 30 -1 54 -3 54
-1 0 -7 -9 -13 -19z"/>
<path d="M765 880 c0 -51 2 -57 14 -45 8 8 14 28 14 45 0 17 -6 37 -14 45 -12
12 -14 6 -14 -45z"/>
<path d="M850 880 c0 -49 4 -70 13 -70 8 0 12 21 13 70 1 53 -2 70 -12 70 -11
0 -14 -18 -14 -70z"/>
<path d="M955 880 c0 -49 4 -70 13 -70 13 0 18 94 6 124 -13 33 -19 14 -19
-54z"/>
<path d="M1055 880 c0 -49 4 -70 13 -70 13 0 18 94 6 124 -13 33 -19 14 -19
-54z"/>
<path d="M1160 880 c0 -49 4 -70 13 -70 10 0 13 51 8 133 -1 4 -5 7 -11 7 -6
0 -10 -30 -10 -70z"/>
<path d="M1260 882 c0 -51 4 -72 13 -72 15 0 14 117 -2 133 -8 8 -11 -8 -11
-61z"/>
<path d="M1365 880 c0 -49 4 -70 13 -70 8 0 12 17 12 53 0 29 -6 61 -12 70
-11 15 -13 6 -13 -53z"/>
<path d="M1670 880 c0 -49 4 -70 13 -70 8 0 12 21 13 70 1 53 -2 70 -12 70
-11 0 -14 -18 -14 -70z"/>
<path d="M1788 880 c2 -38 8 -70 13 -70 13 0 7 132 -6 137 -6 2 -9 -23 -7 -67z"/>
<path d="M1460 891 c0 -43 5 -62 17 -72 15 -12 16 -12 10 4 -4 10 -7 43 -7 73
0 30 -4 54 -10 54 -6 0 -10 -26 -10 -59z"/>
<path d="M1568 890 c-3 -66 -1 -80 13 -80 5 0 9 32 9 70 0 86 -17 93 -22 10z"/>
<path d="M1890 880 c0 -49 4 -70 13 -70 9 0 11 19 9 70 -5 91 -22 91 -22 0z"/>
<path d="M995 621 c-3 -5 -1 -12 5 -16 5 -3 10 1 10 9 0 18 -6 21 -15 7z"/>
<path d="M851 596 c-44 -47 -37 -144 13 -186 15 -11 15 -10 1 16 -20 39 -20
143 1 172 20 29 13 28 -15 -2z"/>
<path d="M1000 451 c0 -11 -3 -26 -6 -35 -4 -10 -1 -16 9 -16 10 0 16 12 19
35 3 24 0 35 -9 35 -7 0 -13 -9 -13 -19z"/>
<path d="M1105 460 c0 -49 4 -70 13 -70 8 0 12 21 12 70 0 49 -4 70 -12 70 -9
0 -13 -21 -13 -70z"/>
<path d="M1270 511 c-23 -44 -5 -121 28 -121 10 0 23 5 30 12 7 7 12 8 12 3 0
-4 9 0 20 10 24 21 25 62 4 90 -14 19 -15 17 -8 -21 4 -25 2 -49 -5 -60 -9
-16 -10 -13 -6 16 9 51 -8 90 -39 90 -15 0 -30 -8 -36 -19z"/>
<path d="M1240 504 c-18 -20 -17 -71 1 -89 12 -12 14 -6 14 45 0 33 -1 60 -1
60 -1 0 -7 -7 -14 -16z"/>
<path d="M1650 410 c0 -89 3 -120 13 -120 9 0 12 31 12 120 0 91 -3 120 -12
120 -10 0 -13 -29 -13 -120z"/>
<path d="M1690 504 c-27 -71 15 -145 58 -102 13 13 16 85 6 112 -10 26 -53 20
-64 -10z"/>
<path d="M1440 471 c0 -43 5 -62 17 -72 15 -12 16 -12 10 4 -4 10 -7 43 -7 73
0 30 -4 54 -10 54 -6 0 -10 -26 -10 -59z"/>
<path d="M1548 470 c-3 -68 -1 -80 15 -80 8 0 11 21 9 70 -4 86 -19 92 -24 10z"/>
</g>
</svg>
